<?xml version="1.0" encoding="UTF-8" standalone="no"?>
<!-- Created with Inkscape (http://www.inkscape.org/) -->

<svg
        width="50"
        height="50"
        viewBox="0 0 264.88531 264.88531"
        version="1.1"
        id="svg1"
        xml:space="preserve"
        xmlns:xlink="http://www.w3.org/1999/xlink"
        xmlns="http://www.w3.org/2000/svg"><defs
     id="defs1"><linearGradient
       id="linearGradient7"><stop
         style="stop-color:#0ba8ff;stop-opacity:1;"
         offset="0"
         id="stop6" /><stop
        style="stop-color:#500089;stop-opacity:1;"
        offset="0.76434427"
        id="stop7" /></linearGradient><linearGradient
        id="linearGradient3"><stop
         style="stop-color:#0ba8ff;stop-opacity:1;"
         offset="0"
         id="stop3" /><stop
        style="stop-color:#6500c4;stop-opacity:1;"
        offset="1"
        id="stop4" /></linearGradient><rect
        x="216.77194"
        y="147.7363"
        width="807.7171"
        height="205.72624"
        id="rect1" /><linearGradient
        xlink:href="#linearGradient3"
        id="linearGradient4"
        x1="3.1011226"
        y1="134.43542"
        x2="267.96161"
        y2="134.43542"
        gradientUnits="userSpaceOnUse"
        gradientTransform="translate(48.317282,-170.23747)" /><linearGradient
        xlink:href="#linearGradient7"
        id="linearGradient6"
        x1="3.1011226"
        y1="134.43542"
        x2="267.96161"
        y2="134.43542"
        gradientUnits="userSpaceOnUse"
        gradientTransform="translate(48.317282,-170.23747)" /></defs><circle
        style="fill:url(#linearGradient6);fill-rule:nonzero;stroke:url(#linearGradient4);stroke-width:0.373408;stroke-opacity:1"
        id="path1"
        cx="183.84865"
        cy="-35.802044"
        r="132.24355"
        transform="rotate(56.019665)" /><text
        xml:space="preserve"
        transform="matrix(0.2906111,0,0,0.2906111,-21.015528,2.7578152)"
        id="text1"
        style="font-weight:bold;font-size:192px;line-height:1.1;font-family:Sans;-inkscape-font-specification:'Sans Bold';white-space:pre;shape-inside:url(#rect1);shape-padding:1.39191;display:inline;fill:#0000ab"><tspan
       x="270"
       y="330"
       id="tspan3"><tspan
         style="fill:#f9f9f9"
         id="tspan2">Benni</tspan></tspan></text><g
        style="fill:#f2f2f2"
        id="g7"
        transform="matrix(4.2630854,0,0,3.5950479,80.91197,125.56311)"><path
       d="M 14.0184,7.36446 C 14.1256,6.96436 13.8882,6.55311 13.4881,6.4459 13.088,6.3387 12.6767,6.57614 12.5695,6.97623 L 9.98131,16.6355 c -0.10721,0.4001 0.13019,0.8113 0.53029,0.9186 0.4001,0.1072 0.8114,-0.1303 0.9186,-0.5304 z"
       fill="#1c274c"
       id="path1-7"
       style="fill:#f2f2f2" /><path
        d="m 16.0303,8.46967 c -0.2929,-0.29289 -0.7677,-0.29289 -1.0606,0 -0.2929,0.29289 -0.2929,0.76777 0,1.06066 l 0.1715,0.17157 c 0.6817,0.6817 1.1385,1.1407 1.4341,1.5282 0.2824,0.3701 0.3463,0.5856 0.3463,0.7699 0,0.1843 -0.0639,0.3998 -0.3463,0.7699 -0.2956,0.3875 -0.7524,0.8465 -1.4341,1.5282 l -0.1715,0.1716 c -0.2929,0.2929 -0.2929,0.7677 0,1.0606 0.2929,0.2929 0.7677,0.2929 1.0606,0 l 0.2084,-0.2083 c 0.6353,-0.6353 1.1651,-1.1651 1.5291,-1.6422 0.3843,-0.5036 0.6538,-1.0357 0.6538,-1.6798 0,-0.6441 -0.2695,-1.1762 -0.6538,-1.6798 C 17.4038,9.84307 16.874,9.31331 16.2387,8.67801 Z"
        fill="#1c274c"
        id="path2"
        style="fill:#f2f2f2" /><path
        d="m 7.96986,8.46967 c 0.29289,-0.29289 0.76776,-0.29289 1.06066,0 0.29289,0.29289 0.29289,0.76777 0,1.06066 L 8.85894,9.7019 C 8.17729,10.3836 7.72052,10.8426 7.42488,11.2301 7.14245,11.6002 7.07861,11.8157 7.07861,12 c 0,0.1843 0.06384,0.3998 0.34627,0.7699 0.29564,0.3875 0.75241,0.8465 1.43406,1.5282 l 0.17158,0.1716 c 0.29289,0.2929 0.29289,0.7677 0,1.0606 -0.2929,0.2929 -0.76777,0.2929 -1.06066,0 L 7.76151,15.322 C 7.12618,14.6867 6.59637,14.1569 6.23235,13.6798 5.84811,13.1762 5.57861,12.6441 5.57861,12 c 0,-0.6441 0.2695,-1.1762 0.65374,-1.6798 C 6.59637,9.84307 7.12617,9.31332 7.7615,8.67802 Z"
        fill="#1c274c"
        id="path3"
        style="fill:#f2f2f2" /><path
        fill-rule="evenodd"
        clip-rule="evenodd"
        d="M 11.9426,1.25 C 9.63423,1.24999 7.82519,1.24998 6.41371,1.43975 4.96897,1.63399 3.82895,2.03933 2.93414,2.93414 2.03933,3.82895 1.63399,4.96897 1.43975,6.41371 1.24998,7.82519 1.24999,9.63423 1.25,11.9426 v 0.1148 c -1e-5,2.3084 -2e-5,4.1174 0.18975,5.5289 0.19424,1.4447 0.59958,2.5848 1.49439,3.4796 0.89481,0.8948 2.03483,1.3001 3.47957,1.4944 C 7.82519,22.75 9.63423,22.75 11.9426,22.75 h 0.1148 c 2.3084,0 4.1174,0 5.5289,-0.1897 1.4447,-0.1943 2.5848,-0.5996 3.4796,-1.4944 0.8948,-0.8948 1.3001,-2.0349 1.4944,-3.4796 C 22.75,16.1748 22.75,14.3658 22.75,12.0574 v -0.1148 c 0,-2.30837 0,-4.11741 -0.1897,-5.52889 C 22.366,4.96897 21.9607,3.82895 21.0659,2.93414 20.1711,2.03933 19.031,1.63399 17.5863,1.43975 16.1748,1.24998 14.3658,1.24999 12.0574,1.25 Z M 3.9948,3.9948 C 4.56445,3.42514 5.33517,3.09825 6.61358,2.92637 7.91356,2.75159 9.62178,2.75 12,2.75 c 2.3782,0 4.0864,0.00159 5.3864,0.17637 1.2784,0.17188 2.0491,0.49877 2.6188,1.06843 0.5697,0.56965 0.8966,1.34037 1.0684,2.61878 C 21.2484,7.91356 21.25,9.62178 21.25,12 c 0,2.3782 -0.0016,4.0864 -0.1764,5.3864 -0.1718,1.2784 -0.4987,2.0491 -1.0684,2.6188 -0.5697,0.5697 -1.3404,0.8966 -2.6188,1.0684 C 16.0864,21.2484 14.3782,21.25 12,21.25 9.62178,21.25 7.91356,21.2484 6.61358,21.0736 5.33517,20.9018 4.56445,20.5749 3.9948,20.0052 3.42514,19.4355 3.09825,18.6648 2.92637,17.3864 2.75159,16.0864 2.75,14.3782 2.75,12 2.75,9.62178 2.75159,7.91356 2.92637,6.61358 3.09825,5.33517 3.42514,4.56445 3.9948,3.9948 Z"
        fill="#1c274c"
        id="path4"
        style="fill:#f2f2f2" /></g></svg>